<?xml version="1.0" standalone="no"?>
<!DOCTYPE svg PUBLIC "-//W3C//DTD SVG 20010904//EN"
 "http://www.w3.org/TR/2001/REC-SVG-20010904/DTD/svg10.dtd">
<svg version="1.0" xmlns="http://www.w3.org/2000/svg"
 width="2232.000000pt" height="870.000000pt" viewBox="0 0 2232.000000 870.000000"
 preserveAspectRatio="xMidYMid meet">

<g transform="translate(0.000000,870.000000) scale(0.100000,-0.100000)"
fill="#000000" stroke="none">
<path d="M5098 8053 c-21 -5 -17 -36 30 -203 67 -244 83 -316 89 -410 9 -158
-29 -274 -115 -352 -60 -54 -114 -82 -284 -147 -177 -68 -261 -108 -307 -146
-40 -34 -39 -45 3 -45 53 0 198 -28 280 -54 l74 -23 94 57 c227 138 348 232
423 332 103 135 138 258 116 406 -12 88 -166 570 -186 584 -11 8 -188 9 -217
1z"/>
<path d="M2506 8004 c-145 -32 -275 -112 -346 -212 -65 -90 -81 -146 -91 -322
-17 -299 -31 -340 -118 -340 -56 0 -104 27 -127 72 -14 27 -16 50 -11 133 11
179 46 331 102 450 13 27 23 50 22 52 -5 4 -91 -67 -149 -123 -61 -59 -67 -73
-90 -234 -13 -94 -4 -268 17 -338 20 -66 85 -136 141 -151 53 -15 151 -13 197
3 91 33 108 74 142 336 29 227 36 267 61 325 63 153 235 258 424 258 124 0
221 -33 380 -128 69 -42 186 -81 265 -89 l60 -6 -45 41 c-57 53 -176 142 -216
162 -47 24 -211 84 -279 102 -87 24 -254 28 -339 9z"/>
<path d="M4510 7791 l-63 -51 -1 -82 c-2 -134 -32 -185 -214 -371 -81 -84
-205 -219 -273 -302 -141 -168 -250 -275 -342 -334 -34 -22 -71 -49 -83 -60
-11 -11 -75 -44 -141 -74 -67 -30 -132 -62 -144 -71 -23 -16 -22 -16 27 -16
75 0 197 35 281 80 133 72 224 149 493 420 146 147 302 297 347 334 97 79 154
160 184 258 18 59 21 88 17 184 -2 63 -9 119 -15 125 -7 7 -29 -5 -73 -40z"/>
<path d="M2575 7708 c-148 -52 -217 -265 -139 -426 45 -92 176 -177 552 -358
l202 -97 88 21 c126 32 205 74 282 151 68 68 119 157 141 244 11 46 11 46 -40
119 -28 40 -61 86 -74 102 l-23 29 -120 -13 c-102 -10 -132 -10 -208 3 -102
18 -213 67 -332 148 -43 29 -100 61 -126 71 -53 20 -154 23 -203 6z"/>
<path d="M6014 7612 c-98 -71 -138 -139 -189 -321 -69 -249 -201 -403 -455
-529 -66 -33 -133 -74 -157 -98 -38 -36 -43 -46 -43 -85 0 -80 48 -130 236
-246 171 -105 217 -157 265 -294 42 -117 56 -237 41 -357 -7 -53 -12 -126 -12
-162 0 -79 -33 -290 -60 -380 -37 -125 -133 -298 -216 -390 l-33 -36 10 -74
c6 -55 20 -98 51 -160 37 -77 56 -100 203 -245 206 -204 261 -286 305 -460 37
-144 22 -317 -40 -459 -36 -85 -107 -181 -204 -278 -72 -72 -102 -110 -131
-168 -21 -41 -66 -117 -101 -167 l-64 -93 85 63 c46 34 155 107 242 162 372
236 512 375 580 579 25 73 27 95 27 226 0 138 -1 150 -32 240 -54 155 -108
236 -267 395 -162 162 -218 231 -269 333 -48 96 -66 169 -66 273 0 125 27 218
119 404 123 249 157 380 148 569 -10 212 -78 358 -255 549 -95 103 -127 161
-116 210 5 23 49 76 158 187 166 170 225 249 311 417 56 109 95 162 144 196
l24 16 -39 48 c-78 97 -139 163 -150 163 -6 0 -29 -13 -50 -28z"/>
<path d="M1338 7128 c-105 -191 -192 -379 -252 -547 l-26 -73 32 20 c51 33
148 132 186 191 46 71 87 188 100 281 12 86 24 230 20 230 -2 0 -29 -46 -60
-102z"/>
<path d="M2235 6715 c-154 -29 -280 -98 -321 -176 -30 -59 -20 -61 103 -20
201 67 382 85 565 56 l113 -17 69 38 69 38 -92 33 c-168 60 -349 78 -506 48z"/>
<path d="M2927 6134 c-38 -12 -51 -22 -64 -50 -16 -33 -16 -39 10 -147 33
-142 40 -207 27 -281 -22 -132 -96 -225 -258 -326 -53 -33 -104 -64 -112 -69
-12 -8 -11 -17 9 -59 l24 -50 55 35 c67 44 174 92 267 123 283 93 446 278 448
510 2 214 -104 332 -297 329 -34 0 -83 -7 -109 -15z"/>
<path d="M1241 6104 c-67 -18 -166 -70 -272 -142 -82 -57 -83 -57 -96 -117
-17 -74 -79 -439 -88 -519 l-7 -58 179 4 c215 6 322 30 478 108 156 77 243
176 280 315 19 75 19 128 -1 195 -44 150 -166 231 -343 229 -42 0 -100 -7
-130 -15z"/>
<path d="M4712 6019 c-23 -7 -32 -15 -30 -27 3 -18 13 -23 141 -78 103 -43
160 -82 188 -127 48 -77 -5 -222 -125 -342 -92 -91 -145 -125 -551 -358 -491
-280 -649 -381 -845 -542 -84 -69 -109 -96 -110 -114 0 -44 -38 -106 -80 -131
-22 -14 -40 -29 -40 -33 0 -19 34 -65 60 -81 63 -36 127 -8 310 139 331 266
662 497 1003 699 233 138 330 209 426 312 140 149 188 302 143 451 -31 101
-76 154 -168 199 -70 35 -82 38 -182 40 -59 2 -122 -1 -140 -7z"/>
<path d="M17404 5970 c-95 -12 -216 -52 -294 -97 -101 -59 -237 -200 -288
-300 -100 -193 -116 -428 -43 -639 70 -205 254 -383 463 -449 299 -95 590 -30
816 182 28 27 52 53 52 59 0 5 -47 56 -105 114 l-104 104 -60 -57 c-109 -104
-264 -152 -407 -128 -241 42 -386 257 -353 524 22 180 167 332 349 367 162 31
306 -12 432 -129 33 -30 62 -50 67 -45 4 5 41 47 82 94 128 146 118 125 78
166 -167 174 -432 264 -685 234z"/>
<path d="M6785 5920 c-302 -40 -523 -273 -555 -583 -29 -292 -22 -405 34 -514
49 -97 73 -117 216 -181 110 -48 143 -75 181 -145 l34 -62 1 -230 c2 -197 5
-241 22 -307 38 -141 106 -249 206 -324 33 -25 62 -41 66 -37 9 10 37 265 50
463 5 80 10 276 10 436 l0 290 -28 45 c-53 83 -112 129 -254 199 -110 54 -138
72 -161 105 -59 86 -43 202 40 295 65 73 145 111 246 118 l79 5 -6 51 c-7 53
-62 338 -72 369 -6 18 -15 19 -109 7z"/>
<path d="M18690 5605 c-213 -48 -392 -225 -440 -433 -16 -69 -16 -215 0 -284
44 -188 197 -355 380 -412 333 -106 675 53 782 362 19 56 23 87 23 192 0 105
-4 136 -23 192 -60 172 -199 310 -372 368 -85 29 -257 36 -350 15z m229 -271
c68 -20 140 -86 172 -157 20 -43 24 -69 24 -147 0 -116 -24 -178 -92 -241 -59
-54 -104 -72 -185 -72 -146 0 -256 100 -276 253 -24 169 53 319 186 363 61 20
106 21 171 1z"/>
<path d="M20204 5611 c-52 -13 -120 -50 -168 -92 l-46 -41 0 61 0 61 -160 0
-160 0 0 -570 0 -570 160 0 159 0 3 358 c3 344 4 358 25 397 44 82 117 128
204 128 77 0 119 -27 150 -96 23 -51 24 -58 27 -419 l4 -368 158 0 159 0 3
358 c3 326 5 360 22 392 45 86 119 133 206 133 63 0 106 -19 143 -63 47 -55
50 -83 54 -462 l5 -358 159 0 159 0 0 354 c0 195 -5 390 -11 433 -11 86 -49
178 -95 232 -106 126 -335 176 -506 111 -79 -29 -172 -93 -205 -141 -16 -21
-30 -39 -33 -39 -3 0 -18 21 -35 46 -38 59 -132 129 -198 149 -53 16 -130 18
-183 6z"/>
<path d="M2927 4986 c-20 -7 -62 -33 -93 -56 l-56 -42 24 -25 c21 -23 106 -86
169 -127 l26 -16 51 84 c61 99 68 145 27 172 -34 22 -102 27 -148 10z"/>
<path d="M2204 4842 c-22 -37 -73 -101 -115 -143 -129 -131 -282 -189 -549
-208 -357 -27 -546 -33 -665 -22 -66 6 -126 11 -133 11 -11 0 -13 -33 -10
-174 1 -96 6 -177 10 -181 4 -4 51 17 105 46 207 111 291 151 378 178 204 66
396 67 630 6 249 -66 350 -50 408 65 23 48 29 75 37 187 5 72 12 143 16 157 5
20 -3 39 -34 85 l-40 60 -38 -67z"/>
<path d="M2676 4463 c-9 -21 -7 -65 2 -61 73 36 74 36 33 60 -26 14 -30 14
-35 1z"/>
<path d="M1447 4070 c-207 -37 -412 -152 -569 -319 -74 -78 -88 -113 -63 -160
12 -24 22 -31 46 -31 39 0 52 7 163 94 231 181 488 257 765 226 86 -9 234 -42
348 -75 19 -6 25 1 52 60 17 37 31 71 31 75 0 8 -276 97 -365 116 -82 18 -339
27 -408 14z"/>
<path d="M2699 3915 c-77 -91 -86 -110 -32 -67 40 32 110 128 101 138 -3 3
-34 -29 -69 -71z"/>
<path d="M4545 3860 c-186 -49 -285 -118 -285 -201 0 -35 26 -59 113 -107 204
-112 332 -270 344 -425 8 -112 28 -136 101 -122 100 19 194 92 233 181 50 111
54 332 10 458 -39 111 -127 197 -231 226 -57 16 -208 11 -285 -10z"/>
<path d="M16740 3845 l0 -35 2365 0 2365 0 0 35 0 35 -2365 0 -2365 0 0 -35z"/>
<path d="M1810 3713 c-183 -19 -447 -81 -532 -124 -24 -12 -91 -55 -150 -96
-132 -91 -207 -126 -270 -127 -42 -1 -47 -3 -43 -21 2 -11 19 -98 37 -193 27
-144 36 -175 53 -185 13 -7 73 -12 165 -11 158 0 235 12 455 69 167 43 235 53
429 61 156 7 157 7 152 29 -6 25 -25 153 -26 173 0 26 -257 5 -521 -43 -223
-41 -269 -33 -269 48 0 43 35 89 89 117 40 20 187 34 525 49 97 5 179 11 182
14 6 6 36 179 38 217 l1 25 -140 1 c-77 1 -156 -1 -175 -3z"/>
<path d="M2501 3593 c-12 -32 -25 -79 -28 -104 l-5 -46 88 -17 c275 -55 384
-126 384 -252 0 -110 -108 -226 -233 -249 -20 -4 -37 -10 -37 -14 0 -4 29 -41
64 -82 102 -118 223 -218 389 -321 l78 -49 28 21 c68 48 172 173 214 258 41
84 42 87 42 191 0 99 -2 111 -32 174 -58 123 -210 256 -398 350 -38 19 -133
59 -210 90 -119 47 -174 65 -306 103 -12 3 -22 -11 -38 -53z"/>
<path d="M17026 3379 c-19 -15 -26 -30 -26 -54 0 -24 7 -39 26 -54 33 -26 58
-27 84 -1 40 40 14 130 -39 130 -10 0 -30 -9 -45 -21z"/>
<path d="M18696 3379 c-19 -15 -26 -30 -26 -54 0 -24 7 -39 26 -54 33 -26 58
-27 84 -1 40 40 14 130 -39 130 -10 0 -30 -9 -45 -21z"/>
<path d="M21360 3020 l0 -350 60 0 60 0 0 350 0 350 -60 0 -60 0 0 -350z"/>
<path d="M8340 3001 l0 -331 60 0 60 0 0 100 0 100 93 0 92 0 55 -100 55 -100
68 0 c37 0 67 2 67 4 0 3 -31 53 -70 112 l-70 107 28 17 c73 44 108 124 99
223 -7 81 -42 131 -115 165 -54 25 -67 27 -239 30 l-183 4 0 -331z m392 182
c26 -26 31 -39 31 -78 0 -50 -23 -91 -64 -112 -15 -8 -66 -13 -131 -13 l-108
0 0 121 0 121 120 -4 c119 -3 120 -3 152 -35z"/>
<path d="M15250 3000 l0 -330 60 0 60 0 0 330 0 330 -60 0 -60 0 0 -330z"/>
<path d="M14640 3230 l0 -70 -35 0 c-35 0 -35 0 -35 -45 0 -45 0 -45 35 -45
l35 0 0 -146 c0 -173 9 -202 74 -234 51 -24 76 -25 145 -4 56 16 55 14 30 81
-7 20 -11 20 -43 11 -26 -8 -43 -8 -61 0 -25 12 -25 12 -25 152 l0 140 70 0
70 0 0 45 0 45 -70 0 -70 0 0 70 0 70 -60 0 -60 0 0 -70z"/>
<path d="M16640 3230 l0 -70 -35 0 c-35 0 -35 0 -35 -45 0 -45 0 -45 35 -45
l35 0 0 -146 c0 -173 9 -202 74 -234 51 -24 76 -25 145 -4 56 16 55 14 30 81
-7 20 -11 20 -43 11 -26 -8 -43 -8 -61 0 -25 12 -25 12 -25 152 l0 140 70 0
70 0 0 45 0 45 -70 0 -70 0 0 70 0 70 -60 0 -60 0 0 -70z"/>
<path d="M17300 3230 l0 -70 -35 0 c-35 0 -35 0 -35 -45 0 -45 0 -45 35 -45
l35 0 0 -146 c0 -173 9 -202 74 -234 51 -24 76 -25 145 -4 56 16 55 14 30 81
-7 20 -11 20 -43 11 -26 -8 -43 -8 -61 0 -25 12 -25 12 -25 152 l0 140 70 0
70 0 0 45 0 45 -70 0 -70 0 0 70 0 70 -60 0 -60 0 0 -70z"/>
<path d="M18310 3230 l0 -70 -35 0 c-35 0 -35 0 -35 -45 0 -45 0 -45 35 -45
l35 0 0 -146 c0 -173 9 -202 74 -234 51 -24 76 -25 145 -4 56 16 55 14 30 81
-7 20 -11 20 -43 11 -26 -8 -43 -8 -61 0 -25 12 -25 12 -25 152 l0 140 70 0
70 0 0 45 0 45 -70 0 -70 0 0 70 0 70 -60 0 -60 0 0 -70z"/>
<path d="M2495 3253 c10 -42 65 -182 73 -187 13 -8 83 22 97 41 8 10 15 37 15
61 0 56 -29 86 -99 101 -84 18 -94 16 -86 -16z"/>
<path d="M9143 3170 c-33 -7 -116 -42 -132 -56 -2 -1 7 -19 19 -39 16 -26 27
-34 39 -29 121 50 210 42 237 -22 8 -18 14 -35 14 -38 0 -2 -51 -6 -112 -8
-129 -4 -178 -22 -209 -72 -35 -58 -21 -143 33 -193 53 -49 176 -53 243 -7 20
13 38 24 40 24 3 0 5 -13 5 -30 0 -30 1 -30 55 -30 l55 0 0 184 c0 106 -5 197
-11 213 -33 88 -143 129 -276 103z m177 -291 c0 -38 -31 -87 -65 -103 -79 -38
-165 -7 -165 59 0 52 27 65 137 65 88 0 93 -1 93 -21z"/>
<path d="M9485 3163 c3 -10 49 -120 101 -244 52 -124 94 -233 94 -242 0 -8
-12 -29 -26 -46 -27 -33 -67 -41 -104 -21 -17 9 -23 4 -46 -32 -25 -40 -26
-42 -8 -55 70 -51 194 -33 242 34 17 24 236 555 250 606 4 16 -2 18 -54 15
l-59 -3 -62 -175 c-34 -96 -64 -179 -66 -185 -3 -9 -59 127 -129 313 l-19 52
-61 0 c-53 0 -59 -2 -53 -17z"/>
<path d="M10183 3162 c-115 -41 -167 -115 -167 -237 0 -126 60 -206 182 -241
102 -30 223 3 283 75 32 39 59 115 59 166 0 51 -27 127 -59 166 -62 75 -197
107 -298 71z m176 -109 c55 -41 76 -127 47 -197 -41 -98 -178 -114 -243 -29
-24 31 -28 46 -28 97 0 71 27 119 79 142 40 18 111 12 145 -13z"/>
<path d="M10650 2925 l0 -255 59 0 60 0 3 166 3 166 37 34 c32 29 45 34 87 34
60 0 96 -26 111 -78 5 -20 10 -101 10 -179 l0 -143 55 0 55 0 0 187 c0 168 -2
191 -20 229 -25 51 -55 72 -123 86 -70 15 -154 -9 -191 -53 l-26 -31 0 46 0
46 -60 0 -60 0 0 -255z"/>
<path d="M11280 2925 l0 -255 59 0 60 0 3 166 3 166 37 34 c32 29 45 34 87 34
60 0 96 -26 111 -78 5 -20 10 -101 10 -179 l0 -143 55 0 55 0 0 187 c0 168 -2
191 -20 229 -25 51 -55 72 -123 86 -70 15 -154 -9 -191 -53 l-26 -31 0 46 0
46 -60 0 -60 0 0 -255z"/>
<path d="M12027 3166 c-106 -29 -171 -120 -171 -240 0 -173 133 -280 309 -247
57 10 134 52 142 77 2 6 -8 25 -22 42 l-26 31 -35 -24 c-72 -49 -153 -45 -208
9 -18 19 -36 43 -39 55 -5 21 -3 21 178 21 148 0 184 3 188 14 9 22 -9 130
-27 164 -24 46 -83 90 -138 102 -61 13 -91 12 -151 -4z m153 -101 c28 -14 60
-60 60 -85 0 -6 -48 -10 -136 -10 l-135 0 6 23 c9 28 44 67 70 77 33 14 104
11 135 -5z"/>
<path d="M12460 2925 l0 -255 59 0 60 0 3 166 3 166 37 34 c51 46 112 48 160
5 l33 -29 3 -171 3 -171 59 0 59 0 3 166 3 166 37 34 c51 46 112 48 160 5 l33
-29 3 -171 3 -171 60 0 59 0 0 168 c0 92 -5 185 -10 206 -19 85 -81 131 -175
131 -76 -1 -129 -26 -163 -77 l-25 -39 -13 29 c-44 105 -238 121 -313 26 l-21
-27 0 47 0 46 -60 0 -60 0 0 -255z"/>
<path d="M13567 3166 c-106 -29 -171 -120 -171 -240 0 -173 133 -280 309 -247
57 10 134 52 142 77 2 6 -8 25 -22 42 l-26 31 -35 -24 c-72 -49 -153 -45 -208
9 -18 19 -36 43 -39 55 -5 21 -3 21 178 21 148 0 184 3 188 14 9 22 -9 130
-27 164 -24 46 -83 90 -138 102 -61 13 -91 12 -151 -4z m153 -101 c28 -14 60
-60 60 -85 0 -6 -48 -10 -136 -10 l-135 0 6 23 c9 28 44 67 70 77 33 14 104
11 135 -5z"/>
<path d="M14000 2925 l0 -255 59 0 60 0 3 166 3 166 37 34 c32 29 45 34 87 34
60 0 96 -26 111 -78 5 -20 10 -101 10 -179 l0 -143 55 0 55 0 0 187 c0 168 -2
191 -20 229 -25 51 -55 72 -123 86 -70 15 -154 -9 -191 -53 l-26 -31 0 46 0
46 -60 0 -60 0 0 -255z"/>
<path d="M15530 2925 l0 -255 59 0 60 0 3 166 3 166 37 34 c32 29 45 34 87 34
60 0 96 -26 111 -78 5 -20 10 -101 10 -179 l0 -143 55 0 55 0 0 187 c0 168 -2
191 -20 229 -25 51 -55 72 -123 86 -70 15 -154 -9 -191 -53 l-26 -31 0 46 0
46 -60 0 -60 0 0 -255z"/>
<path d="M16255 3171 c-85 -22 -125 -67 -125 -140 0 -80 26 -107 143 -147 86
-29 117 -49 117 -73 0 -66 -119 -68 -242 -3 -4 2 -15 -13 -25 -33 -17 -36 -17
-37 7 -55 66 -49 213 -60 293 -21 56 27 77 62 77 127 0 39 -5 51 -32 78 -18
18 -55 40 -83 50 -126 44 -140 51 -143 74 -6 41 16 55 78 50 30 -2 70 -12 89
-21 19 -9 37 -17 41 -17 11 0 43 77 36 88 -18 29 -173 58 -231 43z"/>
<path d="M17010 2925 l0 -255 60 0 60 0 0 255 0 255 -60 0 -60 0 0 -255z"/>
<path d="M17652 2988 c3 -173 5 -197 24 -228 59 -101 202 -117 295 -33 l39 35
0 -46 0 -46 60 0 60 0 0 255 0 255 -60 0 -60 0 0 -140 c0 -155 -9 -192 -55
-228 -31 -24 -89 -29 -129 -11 -46 21 -56 62 -56 228 l0 151 -61 0 -61 0 4
-192z"/>
<path d="M18680 2925 l0 -255 60 0 60 0 0 255 0 255 -60 0 -60 0 0 -255z"/>
<path d="M19073 3162 c-115 -41 -167 -115 -167 -237 0 -126 60 -206 182 -241
102 -30 223 3 283 75 32 39 59 115 59 166 0 51 -27 127 -59 166 -62 75 -197
107 -298 71z m176 -109 c55 -41 76 -127 47 -197 -41 -98 -178 -114 -243 -29
-24 31 -28 46 -28 97 0 71 27 119 79 142 40 18 111 12 145 -13z"/>
<path d="M19550 2925 l0 -255 59 0 60 0 3 166 3 166 37 34 c32 29 45 34 87 34
60 0 96 -26 111 -78 5 -20 10 -101 10 -179 l0 -143 55 0 55 0 0 187 c0 168 -2
191 -20 229 -25 51 -55 72 -123 86 -70 15 -154 -9 -191 -53 l-26 -31 0 46 0
46 -60 0 -60 0 0 -255z"/>
<path d="M20170 2925 l0 -255 59 0 60 0 3 166 3 166 37 34 c32 29 45 34 87 34
60 0 96 -26 111 -78 5 -20 10 -101 10 -179 l0 -143 55 0 55 0 0 187 c0 168 -2
191 -20 229 -25 51 -55 72 -123 86 -70 15 -154 -9 -191 -53 l-26 -31 0 46 0
46 -60 0 -60 0 0 -255z"/>
<path d="M20927 3166 c-106 -29 -171 -120 -171 -240 0 -173 133 -280 309 -247
57 10 134 52 142 77 2 6 -8 25 -22 42 l-26 31 -35 -24 c-72 -49 -153 -45 -208
9 -18 19 -36 43 -39 55 -5 21 -3 21 178 21 148 0 184 3 188 14 9 22 -9 130
-27 164 -24 46 -83 90 -138 102 -61 13 -91 12 -151 -4z m153 -101 c28 -14 60
-60 60 -85 0 -6 -48 -10 -136 -10 l-135 0 6 23 c9 28 44 67 70 77 33 14 104
11 135 -5z"/>
<path d="M6850 3053 c-114 -78 -429 -276 -625 -393 -204 -122 -302 -203 -375
-310 -176 -258 -219 -606 -109 -890 39 -101 93 -185 170 -260 l62 -62 75 75
75 75 -35 49 c-120 164 -178 386 -148 570 47 295 251 549 593 739 56 31 154
87 218 125 l116 68 27 126 c16 69 27 128 25 129 -2 2 -33 -16 -69 -41z"/>
<path d="M1965 2989 c-92 -12 -230 -49 -352 -95 -102 -38 -616 -289 -621 -304
-4 -9 88 -284 118 -354 17 -41 23 -47 42 -40 63 19 258 113 397 191 322 181
410 215 560 216 107 1 139 -21 111 -73 -6 -11 -73 -51 -149 -90 -134 -68 -215
-117 -541 -327 -85 -55 -186 -117 -223 -137 l-68 -38 62 -117 c58 -111 226
-377 234 -370 1 2 17 40 34 84 124 323 397 506 1009 676 105 29 192 56 192 59
-1 3 -40 30 -88 60 -188 119 -421 388 -508 588 l-33 77 -53 1 c-29 1 -84 -2
-123 -7z"/>
<path d="M6710 2664 c-129 -75 -229 -152 -331 -253 -137 -137 -213 -253 -265
-406 -25 -71 -28 -95 -28 -210 0 -97 4 -145 17 -190 21 -70 87 -215 97 -215
14 0 135 181 133 198 -31 213 -16 327 67 492 66 131 201 281 326 363 28 19 36
35 68 143 20 67 36 125 36 128 0 15 -31 2 -120 -50z"/>
<path d="M4933 2239 c-64 -32 -141 -59 -210 -76 -59 -14 -115 -29 -123 -33
-22 -10 -76 -104 -109 -190 -125 -323 -50 -629 191 -784 83 -52 184 -82 413
-121 219 -38 375 -72 471 -105 l56 -19 51 25 c75 38 167 94 167 103 0 4 -21
16 -47 28 -27 12 -111 50 -188 86 -142 65 -275 115 -485 182 -200 64 -309 134
-365 236 -27 48 -30 63 -29 139 1 163 82 332 235 495 45 47 80 85 78 84 -2 0
-50 -23 -106 -50z"/>
<path d="M3863 2150 c-70 -28 -135 -89 -250 -234 -132 -165 -345 -376 -460
-454 -88 -60 -246 -141 -385 -197 -78 -31 -150 -91 -178 -146 -40 -77 -20
-190 48 -266 25 -29 31 -31 71 -25 41 7 44 10 62 56 33 87 101 135 191 136 39
0 54 -6 83 -31 l35 -31 42 25 c131 77 316 244 438 397 76 96 193 270 247 369
20 36 47 85 60 109 l25 43 59 -108 c33 -59 97 -163 142 -231 l82 -123 6 133
c4 83 14 163 27 213 33 128 35 159 18 219 -37 127 -222 202 -363 146z"/>
</g>
</svg>
